<?xml version="1.0" encoding="UTF-8"?>
<svg id="katman_1" data-name="katman 1" xmlns="http://www.w3.org/2000/svg" viewBox="0 0 273.67 243.54">
  <defs>
    <style>
      .cls-1 {
        fill: #fff;
      }

      .cls-2 {
        fill: #e30613;
      }
    </style>
  </defs>
  <path class="cls-2" d="M.26,2.81l80.66,117.89L1.23,240.58c-.64.97.05,2.26,1.21,2.26h83.22c5.11,0,9.88-2.56,12.71-6.82l39.3-59.28,37.93,59.15c2.78,4.34,7.56,6.98,12.72,7.01l83.11.63c1.17,0,1.87-1.29,1.22-2.26l-78.94-117.7L273.43,2.25c.63-.97-.06-2.25-1.21-2.25h-83.08c-5.22,0-10.07,2.67-12.87,7.08l-38.83,61.19L99.79,7.28C96.99,2.76,92.04.02,86.73.05L1.45.53c-1.16,0-1.85,1.31-1.19,2.27Z"/>
  <path class="cls-1" d="M104.04,154.42v-65.3c0-4.97,5.36-8.08,9.68-5.63l56.93,32.38c4.35,2.47,4.37,8.73.04,11.23l-56.93,32.92c-4.32,2.5-9.72-.62-9.72-5.61Z"/>
</svg>